<?xml version="1.0" encoding="UTF-8"?>
<svg width="1600" height="900" viewBox="0 0 1600 900" xmlns="http://www.w3.org/2000/svg">
  <defs>
    <linearGradient id="paper" x1="0" y1="0" x2="0" y2="1">
      <stop offset="0%" stop-color="#f2e8d5"/>
      <stop offset="100%" stop-color="#e6d9c3"/>
    </linearGradient>
  </defs>
  <rect width="1600" height="900" fill="url(#paper)"/>
  <!-- Rays -->
  <g transform="translate(800,900)">
    <!-- 36 rays -->
    <g fill="#d23c2a">
      <!-- We'll programmatically rotate via CSS if needed, but static is fine -->
      <path d="M0 0 L -30 -900 L 30 -900 Z" transform="rotate(0)"/>
      <path d="M0 0 L -30 -900 L 30 -900 Z" transform="rotate(10)"/>
      <path d="M0 0 L -30 -900 L 30 -900 Z" transform="rotate(20)"/>
      <path d="M0 0 L -30 -900 L 30 -900 Z" transform="rotate(30)"/>
      <path d="M0 0 L -30 -900 L 30 -900 Z" transform="rotate(40)"/>
      <path d="M0 0 L -30 -900 L 30 -900 Z" transform="rotate(50)"/>
      <path d="M0 0 L -30 -900 L 30 -900 Z" transform="rotate(60)"/>
      <path d="M0 0 L -30 -900 L 30 -900 Z" transform="rotate(70)"/>
      <path d="M0 0 L -30 -900 L 30 -900 Z" transform="rotate(80)"/>
      <path d="M0 0 L -30 -900 L 30 -900 Z" transform="rotate(90)"/>
      <path d="M0 0 L -30 -900 L 30 -900 Z" transform="rotate(100)"/>
      <path d="M0 0 L -30 -900 L 30 -900 Z" transform="rotate(110)"/>
      <path d="M0 0 L -30 -900 L 30 -900 Z" transform="rotate(120)"/>
      <path d="M0 0 L -30 -900 L 30 -900 Z" transform="rotate(130)"/>
      <path d="M0 0 L -30 -900 L 30 -900 Z" transform="rotate(140)"/>
      <path d="M0 0 L -30 -900 L 30 -900 Z" transform="rotate(150)"/>
      <path d="M0 0 L -30 -900 L 30 -900 Z" transform="rotate(160)"/>
      <path d="M0 0 L -30 -900 L 30 -900 Z" transform="rotate(170)"/>
      <path d="M0 0 L -30 -900 L 30 -900 Z" transform="rotate(180)"/>
      <path d="M0 0 L -30 -900 L 30 -900 Z" transform="rotate(190)"/>
      <path d="M0 0 L -30 -900 L 30 -900 Z" transform="rotate(200)"/>
      <path d="M0 0 L -30 -900 L 30 -900 Z" transform="rotate(210)"/>
      <path d="M0 0 L -30 -900 L 30 -900 Z" transform="rotate(220)"/>
      <path d="M0 0 L -30 -900 L 30 -900 Z" transform="rotate(230)"/>
      <path d="M0 0 L -30 -900 L 30 -900 Z" transform="rotate(240)"/>
      <path d="M0 0 L -30 -900 L 30 -900 Z" transform="rotate(250)"/>
      <path d="M0 0 L -30 -900 L 30 -900 Z" transform="rotate(260)"/>
      <path d="M0 0 L -30 -900 L 30 -900 Z" transform="rotate(270)"/>
      <path d="M0 0 L -30 -900 L 30 -900 Z" transform="rotate(280)"/>
      <path d="M0 0 L -30 -900 L 30 -900 Z" transform="rotate(290)"/>
      <path d="M0 0 L -30 -900 L 30 -900 Z" transform="rotate(300)"/>
      <path d="M0 0 L -30 -900 L 30 -900 Z" transform="rotate(310)"/>
      <path d="M0 0 L -30 -900 L 30 -900 Z" transform="rotate(320)"/>
      <path d="M0 0 L -30 -900 L 30 -900 Z" transform="rotate(330)"/>
      <path d="M0 0 L -30 -900 L 30 -900 Z" transform="rotate(340)"/>
      <path d="M0 0 L -30 -900 L 30 -900 Z" transform="rotate(350)"/>
    </g>
  </g>
  <!-- Bottom band -->
  <rect y="780" width="1600" height="120" fill="#111111" opacity="0.85"/>
</svg>